<?xml version="1.0" encoding="utf-8"?>
<!-- Generator: Adobe Illustrator 17.1.0, SVG Export Plug-In . SVG Version: 6.00 Build 0)  -->
<!DOCTYPE svg PUBLIC "-//W3C//DTD SVG 1.1//EN" "http://www.w3.org/Graphics/SVG/1.1/DTD/svg11.dtd">
<svg version="1.1" id="Layer_1" xmlns="http://www.w3.org/2000/svg" xmlns:xlink="http://www.w3.org/1999/xlink" x="0px" y="0px"
	 viewBox="0 0 841.9 595.3" enable-background="new 0 0 841.9 595.3" xml:space="preserve">
<path fill="#FFFFFF" d="M81.5,438.7h201.7c6.2,0,11.2-5,11.2-11.2V285.8c0-6.2-5-11.2-11.2-11.2H81.5c-6.2,0-11.2,5-11.2,11.2v141.7
	C70.3,433.7,75.3,438.7,81.5,438.7z M85.2,289.5h194.2v134.3H85.2V289.5z"/>
<path fill="#FFFFFF" d="M798.9,390.1h-46.2c-2.3,0-4.1,1.8-4.1,4v83.6c0,2.2,1.8,4,4.1,4h46.2c2.2,0,4.1-1.8,4.1-4v-83.6
	C803,391.9,801.1,390.1,798.9,390.1z M775.8,478.8c-2.1,0-3.8-1.7-3.8-3.7s1.7-3.7,3.8-3.7c2.1,0,3.8,1.7,3.8,3.7
	S777.9,478.8,775.8,478.8z M796.2,468.3h-40.8v-71.5h40.8V468.3z"/>
<path fill="#FFFFFF" d="M666.1,460.7V338.1c0-0.9,0.7-1.7,1.6-1.7h88.7c0.9,0,1.6,0.7,1.6,1.7V385H769v-51.4c0-4.4-3.6-8-8-8h-98.9
	c-4.4,0-6.9,3.6-6.9,8V467c0,4.4,2.5,8,6.9,8h81.4v-13.2h-75.8C666.8,461.8,666.1,461.6,666.1,460.7z M712.1,464
	c2.4,0,4.1,2.1,4.1,4.4c0,2.3-1.9,4.2-4.1,4.2c-2.3,0-4.1-1.9-4.1-4.2C707.9,466.1,709.7,464,712.1,464z"/>
<path fill="#FFFFFF" d="M706.2,320.4v-43.2c0-8-6.5-14.6-14.6-14.6H567.9c-8,0-14.6,6.5-14.6,14.6v174.7c0,8,6.5,14.6,14.6,14.6
	h82.3v-31.4c-6.2,2.8-13.1,4.4-20.4,4.4c-27.3,0-49.5-22.1-49.5-49.5s22.1-49.5,49.5-49.5c7.3,0,14.2,1.6,20.4,4.4v-16.1
	c0-4.7,3.8-8.5,8.5-8.5L706.2,320.4L706.2,320.4z M629.7,316.6c-9.1,0-16.5-7.4-16.5-16.5s7.4-16.5,16.5-16.5s16.5,7.4,16.5,16.5
	C646.2,309.2,638.8,316.6,629.7,316.6z"/>
<path fill="#FFFFFF" d="M212.2,449.9c0,2.1-1.7,3.7-3.7,3.7h-52.3c-2.1,0-3.7-1.7-3.7-3.7H40.4l0,9.5c0,0,2.6,5.4,11.2,5.4h257.7
	c8.7,0,11.3-4.2,11.3-4.2l0-10.7L212.2,449.9L212.2,449.9z"/>
<g>
	<g>
		<ellipse fill="#FFFFFF" cx="629.3" cy="389.6" rx="10" ry="10.6"/>
	</g>
</g>
<g>
	<path fill="#FFFFFF" d="M221.1,268.4V142.7c0-1.3,1-2.3,2.3-2.3h371.3c1.3,0,2.3,1,2.3,2.3v114.1h24.2V142.7
		c0-14.6-11.9-26.5-26.5-26.5H223.5c-14.6,0-26.5,11.9-26.5,26.5v125.7L221.1,268.4z M301.2,381.4l246.2,0l-0.2-24.2l-246,0
		L301.2,381.4z"/>
	<path fill="#FFFFFF" d="M475.4,408H342.8c-7.3,0-13.3,5.9-13.3,13.3c0,7.3,5.9,13.3,13.3,13.3h132.6c7.3,0,13.3-5.9,13.3-13.3
		C488.7,413.9,482.7,408,475.4,408z"/>
</g>
<path fill="#FFFFFF" d="M160.8,254.7"/>
</svg>
