<svg xmlns="http://www.w3.org/2000/svg" viewBox="0 0 558.43 167.49"><defs><style>.cls-1{fill:#191414;}</style></defs><title>Asset 1</title><g id="Layer_2" data-name="Layer 2"><g id="Layer_1-2" data-name="Layer 1"><path class="cls-1" d="M83.74,0a83.74,83.74,0,1,0,83.74,83.74A83.74,83.74,0,0,0,83.74,0Zm38.41,120.79a5.22,5.22,0,0,1-7.18,1.74c-19.67-12-44.42-14.73-73.57-8.07a5.22,5.22,0,1,1-2.32-10.17c31.9-7.29,59.26-4.15,81.34,9.33A5.22,5.22,0,0,1,122.15,120.79ZM132.4,98a6.53,6.53,0,0,1-9,2.15C100.91,86.3,66.59,82.29,40,90.38a6.53,6.53,0,1,1-3.79-12.49C66.59,68.65,104.4,73.12,130.25,89A6.53,6.53,0,0,1,132.4,98Zm.88-23.74c-27-16-71.52-17.5-97.29-9.68a7.83,7.83,0,1,1-4.55-15c29.58-9,78.76-7.24,109.83,11.2a7.83,7.83,0,0,1-8,13.47Z"/><path class="cls-1" d="M227.84,77.31c-14.46-3.45-17-5.87-17-11,0-4.8,4.52-8,11.25-8,6.52,0,13,2.46,19.76,7.51a1,1,0,0,0,.71.17.93.93,0,0,0,.63-.39l7.06-10a1,1,0,0,0-.18-1.29,42.71,42.71,0,0,0-27.77-9.62c-15.61,0-26.52,9.37-26.52,22.77,0,14.38,9.41,19.46,25.66,23.39,13.84,3.19,16.17,5.86,16.17,10.63,0,5.29-4.72,8.58-12.32,8.58-8.44,0-15.32-2.84-23-9.51a1,1,0,0,0-.69-.23.94.94,0,0,0-.65.33L193,110.15a.94.94,0,0,0,.09,1.31,47.19,47.19,0,0,0,31.87,12.22c16.82,0,27.69-9.19,27.69-23.42C252.64,88.24,245.45,81.59,227.84,77.31Z"/><path class="cls-1" d="M290.7,63c-7.29,0-13.27,2.87-18.21,8.76V65.18a1,1,0,0,0-.95-.95H258.6a1,1,0,0,0-.95.95v73.6a1,1,0,0,0,.95.95h12.95a1,1,0,0,0,.95-.95V115.55a23.26,23.26,0,0,0,18.21,8.24c13.55,0,27.27-10.43,27.27-30.37S304.25,63,290.7,63Zm12.21,30.37c0,10.15-6.25,17.24-15.21,17.24s-15.53-7.41-15.53-17.24,6.68-17.24,15.53-17.24S302.91,83.43,302.91,93.42Z"/><path class="cls-1" d="M353.12,63C335.67,63,322,76.49,322,93.64c0,17,13.58,30.26,30.9,30.26,17.51,0,31.22-13.39,31.22-30.48S370.51,63,353.12,63Zm0,47.72c-9.28,0-16.28-7.46-16.28-17.34s6.75-17.13,16.06-17.13,16.39,7.46,16.39,17.35S362.49,110.77,353.12,110.77Z"/><path class="cls-1" d="M421.39,64.23H407.14V49.67a1,1,0,0,0-.95-.95H393.25a1,1,0,0,0-.95.95V64.23h-6.23a1,1,0,0,0-.94.95V76.31a1,1,0,0,0,.94.95h6.23V106c0,11.63,5.79,17.53,17.21,17.53a23.62,23.62,0,0,0,12.13-3,.94.94,0,0,0,.48-.82v-10.6a.95.95,0,0,0-1.37-.85,16.32,16.32,0,0,1-7.6,1.83c-4.15,0-6-1.89-6-6.11V77.26h14.25a1,1,0,0,0,.94-.95V65.18A1,1,0,0,0,421.39,64.23Z"/><path class="cls-1" d="M471,64.29V62.5c0-5.26,2-7.61,6.54-7.61a21.85,21.85,0,0,1,7.3,1.35.95.95,0,0,0,1.25-.9V44.43a1,1,0,0,0-.67-.91A35.53,35.53,0,0,0,474.68,42c-12,0-18.28,6.73-18.28,19.47v2.74h-6.22a1,1,0,0,0-1,.95V76.31a1,1,0,0,0,1,.95h6.22v44.41a1,1,0,0,0,.94.95h12.95a1,1,0,0,0,.95-.95V77.26h12.09l18.52,44.4c-2.1,4.67-4.17,5.59-7,5.59a14.93,14.93,0,0,1-7.14-2,1,1,0,0,0-.75-.07,1,1,0,0,0-.56.51L482,135.29a.94.94,0,0,0,.41,1.22,27.26,27.26,0,0,0,13.83,3.54c9.56,0,14.84-4.45,19.5-16.43l22.46-58a.95.95,0,0,0-.88-1.29H523.86a1,1,0,0,0-.9.64l-13.81,39.44L494,64.9a.94.94,0,0,0-.88-.61Z"/><rect class="cls-1" x="428.36" y="64.23" width="14.84" height="58.38" rx="0.95" ry="0.95"/><circle class="cls-1" cx="435.84" cy="47.8" r="9.29"/><path class="cls-1" d="M549.27,82.39a9.14,9.14,0,1,1,9.16-9.16A9.08,9.08,0,0,1,549.27,82.39Zm0-17.36a8.23,8.23,0,1,0,8.15,8.2A8.15,8.15,0,0,0,549.31,65Zm2,9.14,2.58,3.61h-2.17l-2.32-3.31h-2v3.31h-1.82V68.21h4.26c2.22,0,3.68,1.14,3.68,3.05A2.85,2.85,0,0,1,551.33,74.17Zm-1.54-4.31h-2.37v3h2.37c1.18,0,1.89-.58,1.89-1.51S551,69.85,549.8,69.85Z"/></g></g></svg>